<?xml version="1.0" encoding="UTF-8"?><svg id="uuid-8c18acf9-cf10-4521-8da0-526c5ab6f17a" xmlns="http://www.w3.org/2000/svg" viewBox="0 0 127.82 127.82"><defs><style>.uuid-0f2a272b-810f-4b24-b11b-f254aa32ccfa{fill:#fff;}</style></defs><path class="uuid-0f2a272b-810f-4b24-b11b-f254aa32ccfa" d="M101.7,59.04l12.19-2.54c-1.13-7.66-3.97-14.76-8.12-20.9l-10.29,6.55c-.9.57-2.08.44-2.84-.31l-4.88-4.88c-.76-.76-.89-1.96-.3-2.86l6.89-10.52c-6.15-4.65-13.4-7.91-21.29-9.35l-2.65,11.93c-.23,1.04-1.16,1.79-2.23,1.79h-6.91c-1.08,0-2.01-.76-2.23-1.81l-2.54-12.19c-7.81,1.15-15.03,4.09-21.25,8.38l6.56,10.31c.57.9.44,2.08-.31,2.84l-4.88,4.88c-.76.76-1.96.89-2.86.3l-10.42-6.82c-4.52,6.08-7.69,13.21-9.1,20.95l11.93,2.65c1.04.23,1.79,1.16,1.79,2.23v6.91c0,1.08-.76,2.01-1.81,2.23l-12.19,2.54c1.15,7.81,4.09,15.03,8.38,21.25l10.31-6.56c.9-.57,2.08-.44,2.84.31l4.88,4.88c.76.76.89,1.96.3,2.86l-6.82,10.42c6.08,4.52,13.21,7.69,20.95,9.1l2.65-11.93c.23-1.04,1.16-1.79,2.23-1.79h6.91c1.08,0,2.01.76,2.23,1.81l2.54,12.19c7.81-1.15,15.03-4.09,21.25-8.38l-6.56-10.31c-.57-.9-.44-2.08.31-2.84l4.88-4.88c.76-.76,1.96-.89,2.86-.3l10.42,6.82c4.52-6.08,7.69-13.21,9.1-20.95l-11.93-2.65c-1.04-.23-1.79-1.16-1.79-2.23v-6.91c0-1.08.76-2.01,1.81-2.23ZM63.91,75.57c-6.44,0-11.65-5.22-11.65-11.65s5.22-11.65,11.65-11.65,11.65,5.22,11.65,11.65-5.22,11.65-11.65,11.65Z"/></svg>