<svg width="18" height="18" viewBox="0 0 18 18" fill="none" xmlns="http://www.w3.org/2000/svg">
<path d="M16.2 14.9343L15.6375 14.0624C15.525 13.8937 15.4688 13.7249 15.4688 13.528V7.67803C15.4688 6.01865 14.7656 4.47178 13.4719 3.31865C12.4313 2.39053 11.0813 1.7999 9.64688 1.6874V1.1249C9.64688 0.787402 9.36563 0.478027 9 0.478027C8.6625 0.478027 8.35313 0.759277 8.35313 1.1249V1.65928C8.29688 1.65928 8.24063 1.65928 8.18438 1.6874C4.92188 2.05303 2.475 4.66865 2.475 7.79053V13.528C2.44688 13.8093 2.39063 13.9499 2.33438 14.0343L1.8 14.9343C1.63125 15.2155 1.63125 15.553 1.8 15.8343C1.96875 16.0874 2.25 16.2562 2.55938 16.2562H8.38125V16.8749C8.38125 17.2124 8.6625 17.5218 9.02813 17.5218C9.36563 17.5218 9.675 17.2405 9.675 16.8749V16.2562H15.4688C15.7781 16.2562 16.0594 16.0874 16.2281 15.8343C16.3969 15.553 16.3969 15.2155 16.2 14.9343ZM3.23438 14.9905L3.43125 14.653C3.6 14.3718 3.68438 14.0343 3.74063 13.6405V7.79053C3.74063 5.31553 5.70938 3.23428 8.325 2.95303C9.92813 2.78428 11.5031 3.2624 12.6563 4.2749C13.6688 5.1749 14.2313 6.38428 14.2313 7.67803V13.528C14.2313 13.9499 14.3438 14.3437 14.5969 14.7374L14.7656 14.9905H3.23438V14.9905Z" fill="#64748B"/>
</svg>
