<?xml version="1.0" encoding="UTF-8"?><svg id="uuid-203761d7-9454-4c32-9d01-ee9573ddc372" xmlns="http://www.w3.org/2000/svg" viewBox="0 0 93.75 60.6"><defs><style>.uuid-2dd746b6-b94e-48bd-bb2f-2a85c54be2db{fill:#fff;stroke:#fff;stroke-miterlimit:10;}</style></defs><path class="uuid-2dd746b6-b94e-48bd-bb2f-2a85c54be2db" d="M89.08,25.38H4.73l-1.22.43-2.48,2.01c-.34.28-.53.69-.53,1.12v2.7c0,.44.2.85.53,1.12l2.48,2.01,1.22.43h84.35c.35,0,.69-.13.96-.36l2.36-2.09c.31-.28.49-.67.49-1.09v-2.77c0-.42-.18-.81-.49-1.09l-2.36-2.09c-.26-.23-.61-.36-.96-.36Z"/><path class="uuid-2dd746b6-b94e-48bd-bb2f-2a85c54be2db" d="M89.08.5H4.73l-1.22.43L1.03,2.95c-.34.28-.53.69-.53,1.12v2.7c0,.44.2.85.53,1.12l2.48,2.01,1.22.43h84.35c.35,0,.69-.13.96-.36l2.36-2.09c.31-.28.49-.67.49-1.09v-2.77c0-.42-.18-.81-.49-1.09l-2.36-2.09c-.26-.23-.61-.36-.96-.36Z"/><path class="uuid-2dd746b6-b94e-48bd-bb2f-2a85c54be2db" d="M89.44,50.26H5.1l-1.22.43-2.48,2.01c-.34.28-.53.69-.53,1.12v2.7c0,.44.2.85.53,1.12l2.48,2.01,1.22.43h84.35c.35,0,.69-.13.96-.36l2.36-2.09c.31-.28.49-.67.49-1.09v-2.77c0-.42-.18-.81-.49-1.09l-2.36-2.09c-.26-.23-.61-.36-.96-.36Z"/></svg>